<svg version="1" xmlns="http://www.w3.org/2000/svg" width="296" height="296" viewBox="0 0 222.000000 222.000000"><path d="M143 37.2c-1.1 3.1-.7 4.2 8.7 23 5.4 10.9 10.2 19.8 10.6 19.8.5 0 3.2-1.1 6-2.4 2.9-1.3 7.3-3.3 10-4.5 2.6-1.1 4.7-2.8 4.7-3.6 0-.8-2.6-4.3-5.7-7.7-3.2-3.4-8-8.7-10.8-11.8-12.6-13.9-15-16-18.8-16-3.1 0-3.7.4-4.7 3.2zm-53 2.2C74.7 43 63 50.1 49.9 63.7 42.6 71.2 38.7 78.1 34.4 91c-2.5 7.7-2.8 9.9-2.8 22.7-.1 7.8.3 14.5.7 14.9.8.9 6.1-.4 20.2-4.8 16.1-5.1 35.5-11 44.7-13.7 3.1-.9 6-1.9 6.4-2.3.3-.4-.1-2.5-1-4.8-2.5-6.4-2.1-11.9 1.4-17.2 3.3-5 5-5.8 12.3-5.8 5.5 0 9 1.6 13.1 5.9 1.7 1.7 3.4 3.1 4 3.1 1.2 0 15.5-7 16.1-7.9.4-.8-1.8-5.2-10.4-21.6-11.9-22.3-10.3-20.6-18.8-21-1.2 0-2.5-.4-2.9-.8-1.5-1.5-18.2-.5-27.4 1.7zm102.8 38c-10.7 2.9-14.8 4.8-31.6 14.8-12.6 7.5-30.4 17.9-34.7 20.2-7.2 4-10.4 6.7-9.8 8.2.8 2.1 3.5 1.6 21.3-3.6 3.6-1.1 11.5-3.3 17.5-5 48-13.3 66.5-21.7 66.5-30.2 0-2.4-.6-3.2-3.7-4.5-6.3-2.6-15.7-2.6-25.5.1z"/><path d="M112.5 88.9c-3.7.8-4.1 2.5-2.4 10.2 1.3 5.7 1.4 5.8 4.6 5.7 1.8-.1 3.3-.5 3.3-1s1.6-1.6 3.5-2.4c3.9-1.6 4.3-2.8 1.8-6.4-3.4-5-6.8-6.8-10.8-6.1zm73.6 24.2c-8.6 4.1-10.2 5.2-9.6 6.6.6 1.5 6.3 17.4 13.2 37.1.8 2.3 2.4 4.7 3.4 5.3 1.7.8 2.5.5 5.1-2.3l3-3.3-.7-23.5c-.4-12.9-.9-23.8-1.2-24.3-.8-1.3-2.5-.7-13.2 4.4zM5.3 124.2c-4.1 6.4-5.3 9.5-5.3 14.2 0 3.3.6 4.8 2.7 6.8 5.2 4.9 22 7.3 33.1 4.8 2.3-.6 5.9-1.3 8-1.6 11.4-1.8 57-15.8 59.5-18.3 1.2-1.2-3.4-9.1-5.3-9.1-.8 0-4.2 1.2-7.5 2.6-30.8 13-71.9 21.3-79.9 16.1-2.3-1.6-2.6-2.3-2.1-5 .4-1.8 2-5.2 3.6-7.6 3.2-4.6 3-5.6-1.3-6.6-2.3-.6-3-.2-5.5 3.7zm157.3.6c-.3.6-1.8 1.3-3.3 1.7-1.6.4-5 1.6-7.6 2.7-4.1 1.8-4.8 2.5-4.6 4.7.5 6.7-.2 9.2-3.6 13-4 4.4-10.4 6.7-15.5 5.6-4-.9-9.1-5.9-12-12-1.5-3.2-2.7-4.4-3.7-4.1-.8.4-2.7.9-4.1 1.2-1.5.4-3.1 1-3.7 1.4-.5.4-3.9 1.7-7.5 2.8-13.1 4.1-47.5 16.3-48.5 17.3-.6.6 1.8 3.6 7.2 8.8 6.6 6.4 10.2 8.8 19.9 13.7 11.8 5.8 12 5.9 21.6 6.2 19 .7 36-2.2 48.7-8.4 8.3-4.1 21.8-16.6 26.4-24.4l2.6-4.5-4.4-13c-4.1-12.1-6.2-15.5-7.9-12.7zm-37 5.1c-.4.5-.2 1.2.3 1.5.5.4 1.2.2 1.5-.3.4-.5.2-1.2-.3-1.5-.5-.4-1.2-.2-1.5.3z"/><path d="M130 131.4c-2.6 1.1-5.1 2.4-5.7 2.9-1.5.9 4.5 12.7 6.4 12.7.8 0 2.5-1.2 3.8-2.6 1.9-2.1 2.5-3.8 2.5-7.4 0-2.5-.6-5.3-1.2-6.2-1.2-1.4-1.8-1.3-5.8.6z"/></svg>