<?xml version="1.0" standalone="no"?>
<!DOCTYPE svg PUBLIC "-//W3C//DTD SVG 20010904//EN"
 "http://www.w3.org/TR/2001/REC-SVG-20010904/DTD/svg10.dtd">
<svg version="1.0" xmlns="http://www.w3.org/2000/svg"
 width="222.000000pt" height="222.000000pt" viewBox="0 0 222.000000 222.000000"
 preserveAspectRatio="xMidYMid meet">
<metadata>
Created by potrace 1.11, written by Peter Selinger 2001-2013
</metadata>
<g transform="translate(0.000000,222.000000) scale(0.100000,-0.100000)"
fill="#000000" stroke="none">
<path d="M1430 1848 c-11 -31 -7 -42 87 -230 54 -109 102 -198 106 -198 5 0
32 11 60 24 29 13 73 33 100 45 26 11 47 28 47 36 0 8 -26 43 -57 77 -32 34
-80 87 -108 118 -126 139 -150 160 -188 160 -31 0 -37 -4 -47 -32z"/>
<path d="M900 1826 c-153 -36 -270 -107 -401 -243 -73 -75 -112 -144 -155
-273 -25 -77 -28 -99 -28 -227 -1 -78 3 -145 7 -149 8 -9 61 4 202 48 161 51
355 110 447 137 31 9 60 19 64 23 3 4 -1 25 -10 48 -25 64 -21 119 14 172 33
50 50 58 123 58 55 0 90 -16 131 -59 17 -17 34 -31 40 -31 12 0 155 70 161 79
4 8 -18 52 -104 216 -119 223 -103 206 -188 210 -12 0 -25 4 -29 8 -15 15
-182 5 -274 -17z"/>
<path d="M1928 1446 c-107 -29 -148 -48 -316 -148 -126 -75 -304 -179 -347
-202 -72 -40 -104 -67 -98 -82 8 -21 35 -16 213 36 36 11 115 33 175 50 480
133 665 217 665 302 0 24 -6 32 -37 45 -63 26 -157 26 -255 -1z"/>
<path d="M1125 1331 c-37 -8 -41 -25 -24 -102 13 -57 14 -58 46 -57 18 1 33 5
33 10 0 5 16 16 35 24 39 16 43 28 18 64 -34 50 -68 68 -108 61z"/>
<path d="M1861 1089 c-86 -41 -102 -52 -96 -66 6 -15 63 -174 132 -371 8 -23
24 -47 34 -53 17 -8 25 -5 51 23 l30 33 -7 235 c-4 129 -9 238 -12 243 -8 13
-25 7 -132 -44z"/>
<path d="M53 978 c-41 -64 -53 -95 -53 -142 0 -33 6 -48 27 -68 52 -49 220
-73 331 -48 23 6 59 13 80 16 114 18 570 158 595 183 12 12 -34 91 -53 91 -8
0 -42 -12 -75 -26 -308 -130 -719 -213 -799 -161 -23 16 -26 23 -21 50 4 18
20 52 36 76 32 46 30 56 -13 66 -23 6 -30 2 -55 -37z"/>
<path d="M1626 972 c-3 -6 -18 -13 -33 -17 -16 -4 -50 -16 -76 -27 -41 -18
-48 -25 -46 -47 5 -67 -2 -92 -36 -130 -40 -44 -104 -67 -155 -56 -40 9 -91
59 -120 120 -15 32 -27 44 -37 41 -8 -4 -27 -9 -41 -12 -15 -4 -31 -10 -37
-14 -5 -4 -39 -17 -75 -28 -131 -41 -475 -163 -485 -173 -6 -6 18 -36 72 -88
66 -64 102 -88 199 -137 118 -58 120 -59 216 -62 190 -7 360 22 487 84 83 41
218 166 264 244 l26 45 -44 130 c-41 121 -62 155 -79 127z"/>
<path d="M1256 921 c-4 -5 -2 -12 3 -15 5 -4 12 -2 15 3 4 5 2 12 -3 15 -5 4
-12 2 -15 -3z"/>
<path d="M1300 906 c-26 -11 -51 -24 -57 -29 -15 -9 45 -127 64 -127 8 0 25
12 38 26 19 21 25 38 25 74 0 25 -6 53 -12 62 -12 14 -18 13 -58 -6z"/>
</g>
</svg>
